<mxfile host="65bd71144e">
    <diagram id="Ek28gAYluiZjqxpAqC49" name="Page-1">
        <mxGraphModel dx="1901" dy="1918" grid="1" gridSize="10" guides="1" tooltips="1" connect="1" arrows="1" fold="1" page="1" pageScale="1" pageWidth="827" pageHeight="1169" math="0" shadow="0">
            <root>
                <mxCell id="0"/>
                <mxCell id="1" parent="0"/>
                <mxCell id="2" style="edgeStyle=none;html=1;entryX=0.5;entryY=0;entryDx=0;entryDy=0;rounded=0;" parent="1" source="5" target="8" edge="1">
                    <mxGeometry relative="1" as="geometry"/>
                </mxCell>
                <mxCell id="3" style="edgeStyle=none;rounded=0;html=1;entryX=0.5;entryY=0;entryDx=0;entryDy=0;" parent="1" target="6" edge="1">
                    <mxGeometry relative="1" as="geometry">
                        <mxPoint x="260" y="-390.00000000000045" as="sourcePoint"/>
                        <Array as="points">
                            <mxPoint x="-390" y="-390"/>
                        </Array>
                    </mxGeometry>
                </mxCell>
                <mxCell id="4" style="edgeStyle=none;rounded=0;html=1;entryX=0.5;entryY=0;entryDx=0;entryDy=0;" parent="1" target="10" edge="1">
                    <mxGeometry relative="1" as="geometry">
                        <mxPoint x="260" y="-390.00000000000045" as="sourcePoint"/>
                        <Array as="points">
                            <mxPoint x="660" y="-390"/>
                        </Array>
                    </mxGeometry>
                </mxCell>
                <mxCell id="5" value="average calculator" style="rounded=0;whiteSpace=wrap;html=1;" parent="1" vertex="1">
                    <mxGeometry x="200" y="-480" width="120" height="60" as="geometry"/>
                </mxCell>
                <mxCell id="39" style="edgeStyle=none;html=1;entryX=0.5;entryY=0;entryDx=0;entryDy=0;rounded=0;" edge="1" parent="1" target="38">
                    <mxGeometry relative="1" as="geometry">
                        <mxPoint x="-390" y="-290" as="sourcePoint"/>
                        <Array as="points">
                            <mxPoint x="-260" y="-290"/>
                        </Array>
                    </mxGeometry>
                </mxCell>
                <mxCell id="41" style="edgeStyle=none;html=1;entryX=0.5;entryY=0;entryDx=0;entryDy=0;" edge="1" parent="1" source="6" target="11">
                    <mxGeometry relative="1" as="geometry"/>
                </mxCell>
                <mxCell id="42" style="edgeStyle=none;html=1;entryX=0.5;entryY=0;entryDx=0;entryDy=0;rounded=0;" edge="1" parent="1" target="36">
                    <mxGeometry relative="1" as="geometry">
                        <mxPoint x="-390" y="-290" as="sourcePoint"/>
                        <Array as="points">
                            <mxPoint x="-520" y="-290"/>
                        </Array>
                    </mxGeometry>
                </mxCell>
                <mxCell id="6" value="Input" style="rounded=0;whiteSpace=wrap;html=1;" parent="1" vertex="1">
                    <mxGeometry x="-450" y="-370" width="120" height="60" as="geometry"/>
                </mxCell>
                <mxCell id="46" style="edgeStyle=none;rounded=0;html=1;entryX=0.5;entryY=0;entryDx=0;entryDy=0;" edge="1" parent="1" source="8" target="21">
                    <mxGeometry relative="1" as="geometry"/>
                </mxCell>
                <mxCell id="47" style="edgeStyle=none;rounded=0;html=1;entryX=0.5;entryY=0;entryDx=0;entryDy=0;" edge="1" parent="1" target="13">
                    <mxGeometry relative="1" as="geometry">
                        <mxPoint x="260" y="-250" as="sourcePoint"/>
                        <Array as="points">
                            <mxPoint x="130" y="-250"/>
                        </Array>
                    </mxGeometry>
                </mxCell>
                <mxCell id="48" style="edgeStyle=none;rounded=0;html=1;entryX=0.5;entryY=0;entryDx=0;entryDy=0;" edge="1" parent="1" target="43">
                    <mxGeometry relative="1" as="geometry">
                        <mxPoint x="260" y="-250" as="sourcePoint"/>
                        <Array as="points">
                            <mxPoint x="390" y="-250"/>
                        </Array>
                    </mxGeometry>
                </mxCell>
                <mxCell id="49" style="edgeStyle=none;rounded=0;html=1;entryX=0.5;entryY=0;entryDx=0;entryDy=0;" edge="1" parent="1" target="29">
                    <mxGeometry relative="1" as="geometry">
                        <mxPoint x="260" y="-250" as="sourcePoint"/>
                        <Array as="points">
                            <mxPoint y="-250"/>
                        </Array>
                    </mxGeometry>
                </mxCell>
                <mxCell id="8" value="Process" style="rounded=0;whiteSpace=wrap;html=1;" parent="1" vertex="1">
                    <mxGeometry x="200" y="-370" width="120" height="60" as="geometry"/>
                </mxCell>
                <mxCell id="32" style="edgeStyle=none;html=1;entryX=0.5;entryY=0;entryDx=0;entryDy=0;" parent="1" source="10" target="25" edge="1">
                    <mxGeometry relative="1" as="geometry"/>
                </mxCell>
                <mxCell id="33" style="edgeStyle=none;html=1;entryX=0.5;entryY=0;entryDx=0;entryDy=0;rounded=0;" parent="1" target="14" edge="1">
                    <mxGeometry relative="1" as="geometry">
                        <mxPoint x="830" y="-300" as="sourcePoint"/>
                        <Array as="points">
                            <mxPoint x="700" y="-300"/>
                        </Array>
                    </mxGeometry>
                </mxCell>
                <mxCell id="34" style="edgeStyle=none;rounded=0;html=1;entryX=0.5;entryY=0;entryDx=0;entryDy=0;" parent="1" target="31" edge="1">
                    <mxGeometry relative="1" as="geometry">
                        <mxPoint x="830" y="-300" as="sourcePoint"/>
                        <Array as="points">
                            <mxPoint x="960" y="-300"/>
                        </Array>
                    </mxGeometry>
                </mxCell>
                <mxCell id="10" value="Output" style="rounded=0;whiteSpace=wrap;html=1;" parent="1" vertex="1">
                    <mxGeometry x="770" y="-390" width="120" height="60" as="geometry"/>
                </mxCell>
                <mxCell id="11" value="Enter number_twi" style="rounded=0;whiteSpace=wrap;html=1;" parent="1" vertex="1">
                    <mxGeometry x="-450" y="-260" width="120" height="60" as="geometry"/>
                </mxCell>
                <mxCell id="13" value="Is user_number 0&amp;lt;" style="rounded=0;whiteSpace=wrap;html=1;" parent="1" vertex="1">
                    <mxGeometry x="70" y="-190" width="120" height="60" as="geometry"/>
                </mxCell>
                <mxCell id="14" value="If user_number is positive, print &quot;Number Is Positive&quot;." style="rounded=0;whiteSpace=wrap;html=1;" parent="1" vertex="1">
                    <mxGeometry x="640" y="-250" width="120" height="60" as="geometry"/>
                </mxCell>
                <mxCell id="21" value="Is user_number 0" style="rounded=0;whiteSpace=wrap;html=1;" parent="1" vertex="1">
                    <mxGeometry x="200" y="-190" width="120" height="60" as="geometry"/>
                </mxCell>
                <mxCell id="25" value="If user_number is negative, print &quot;Number Is negative&quot;." style="rounded=0;whiteSpace=wrap;html=1;" parent="1" vertex="1">
                    <mxGeometry x="770" y="-250" width="120" height="60" as="geometry"/>
                </mxCell>
                <mxCell id="29" value="Is user_number 0&amp;gt;" style="rounded=0;whiteSpace=wrap;html=1;" parent="1" vertex="1">
                    <mxGeometry x="-60" y="-190" width="120" height="60" as="geometry"/>
                </mxCell>
                <mxCell id="31" value="If user_number is 0, print &quot;Number Is 0&quot;." style="rounded=0;whiteSpace=wrap;html=1;" parent="1" vertex="1">
                    <mxGeometry x="900" y="-250" width="120" height="60" as="geometry"/>
                </mxCell>
                <mxCell id="36" value="Enter number_one" style="rounded=0;whiteSpace=wrap;html=1;" vertex="1" parent="1">
                    <mxGeometry x="-580" y="-260" width="120" height="60" as="geometry"/>
                </mxCell>
                <mxCell id="38" value="Enter number_three" style="rounded=0;whiteSpace=wrap;html=1;" vertex="1" parent="1">
                    <mxGeometry x="-320" y="-260" width="120" height="60" as="geometry"/>
                </mxCell>
                <mxCell id="43" value="Is user_number 0" style="rounded=0;whiteSpace=wrap;html=1;" vertex="1" parent="1">
                    <mxGeometry x="330" y="-190" width="120" height="60" as="geometry"/>
                </mxCell>
                <mxCell id="44" value="Is user_number 0" style="rounded=0;whiteSpace=wrap;html=1;" vertex="1" parent="1">
                    <mxGeometry x="460" y="-190" width="120" height="60" as="geometry"/>
                </mxCell>
            </root>
        </mxGraphModel>
    </diagram>
</mxfile>